# xmcd
#
# Track frame offsets: 
#        151
#        11751
#        23259
#        35159
#        47104
#        57392
#        72251
#        84024
#        96300
#        107863
#        120399
#        132016
#        146827
#        156755
#        169842
#
# Disc length: 2427 seconds
#
# Revision: 0
# Processed by: cddbd v1.5.2PL0 Copyright (c) Steve Scherf et al.
# Submitted via: ExactAudioCopy v0.99pb5
#
DISCID=c409790f
DTITLE=Kyle Creed - Liberty
DYEAR=1977
DGENRE=Old Time
TTITLE0=Cumberland Gap
TTITLE1=Katy Kline
TTITLE2=Let Me Fall
TTITLE3=Liberty
TTITLE4=Little Liza Jane
TTITLE5=Nellie Gray
TTITLE6=Big Liza
TTITLE7=Sail Away Ladies
TTITLE8=Shady Grove
TTITLE9=Roust-a-Bout
TTITLE10=Lost Indian
TTITLE11=Sinful Flirt
TTITLE12=Cluck Ole Hen
TTITLE13=Old Joe Clark
TTITLE14=John Hardy
EXTD=
EXTT0=
EXTT1=
EXTT2=
EXTT3=
EXTT4=
EXTT5=
EXTT6=
EXTT7=
EXTT8=
EXTT9=
EXTT10=
EXTT11=
EXTT12=
EXTT13=
EXTT14=
PLAYORDER=
